<svg xmlns="http://www.w3.org/2000/svg" xmlns:xlink="http://www.w3.org/1999/xlink" width="500" zoomAndPan="magnify" viewBox="0 0 375 374.999991" height="500" preserveAspectRatio="xMidYMid meet" version="1.0"><defs><clipPath id="b111a66bc0"><path d="M 11.285156 11.285156 L 363.714844 11.285156 L 363.714844 363.714844 L 11.285156 363.714844 Z M 11.285156 11.285156 " clip-rule="nonzero"/></clipPath><clipPath id="ae02020aa9"><path d="M 187.5 11.285156 C 90.179688 11.285156 11.285156 90.179688 11.285156 187.5 C 11.285156 284.820312 90.179688 363.714844 187.5 363.714844 C 284.820312 363.714844 363.714844 284.820312 363.714844 187.5 C 363.714844 90.179688 284.820312 11.285156 187.5 11.285156 Z M 187.5 11.285156 " clip-rule="nonzero"/></clipPath><clipPath id="d082cf1c80"><path d="M 96.378906 117.253906 L 278.628906 117.253906 L 278.628906 257 L 96.378906 257 Z M 96.378906 117.253906 " clip-rule="nonzero"/></clipPath></defs><g clip-path="url(#b111a66bc0)"><g clip-path="url(#ae02020aa9)"><path fill="#ffffff" d="M 11.285156 11.285156 L 363.714844 11.285156 L 363.714844 363.714844 L 11.285156 363.714844 Z M 11.285156 11.285156 " fill-opacity="1" fill-rule="nonzero"/></g></g><g clip-path="url(#d082cf1c80)"><path fill="#4285f4" d="M 154.367188 227.570312 L 111.1875 184.390625 L 96.535156 199.042969 L 154.367188 256.871094 L 278.617188 132.617188 L 263.96875 117.96875 Z M 154.367188 227.570312 " fill-opacity="1" fill-rule="nonzero"/></g></svg>