<svg xmlns="http://www.w3.org/2000/svg" xmlns:xlink="http://www.w3.org/1999/xlink" width="500" zoomAndPan="magnify" viewBox="0 0 375 374.999991" height="500" preserveAspectRatio="xMidYMid meet" version="1.0"><defs><clipPath id="1d6d68aa35"><path d="M 11 12.183594 L 364 12.183594 L 364 363 L 11 363 Z M 11 12.183594 " clip-rule="nonzero"/></clipPath><clipPath id="8be66b2093"><path d="M 192.628906 16.46875 L 226.632812 125.636719 C 229.683594 135.429688 238.75 142.105469 249.011719 142.105469 L 357.746094 142.105469 C 360.238281 142.105469 362.449219 143.695312 363.242188 146.054688 C 364.035156 148.414062 363.234375 151.019531 361.25 152.523438 L 272.863281 219.511719 C 264.613281 225.765625 261.167969 236.515625 264.246094 246.398438 L 298.25 355.566406 C 298.964844 357.859375 298.113281 360.355469 296.148438 361.734375 C 294.179688 363.117188 291.546875 363.066406 289.632812 361.617188 L 201.246094 294.628906 C 193.117188 288.46875 181.882812 288.46875 173.753906 294.628906 L 85.367188 361.617188 C 83.453125 363.066406 80.820312 363.117188 78.851562 361.734375 C 76.886719 360.355469 76.035156 357.859375 76.75 355.566406 L 110.753906 246.398438 C 113.832031 236.515625 110.386719 225.765625 102.136719 219.511719 L 13.75 152.523438 C 11.765625 151.019531 10.964844 148.414062 11.757812 146.054688 C 12.550781 143.695312 14.761719 142.105469 17.253906 142.105469 L 125.988281 142.105469 C 136.25 142.105469 145.316406 135.429688 148.367188 125.636719 L 182.371094 16.46875 C 183.070312 14.222656 185.148438 12.695312 187.5 12.695312 C 189.851562 12.695312 191.929688 14.222656 192.628906 16.46875 Z M 192.628906 16.46875 " clip-rule="nonzero"/></clipPath></defs><g clip-path="url(#1d6d68aa35)"><g clip-path="url(#8be66b2093)"><path stroke-linecap="butt" transform="matrix(0.75, 0, 0, 0.75, 0.00387475, -0.000000000000021316)" fill="none" stroke-linejoin="miter" d="M 256.833376 21.958333 L 302.171918 167.515625 C 306.239626 180.572917 318.328168 189.473959 332.010459 189.473959 L 476.989626 189.473959 C 480.312543 189.473959 483.260459 191.59375 484.317751 194.739584 C 485.375043 197.890625 484.307334 201.359375 481.661501 203.364584 L 363.812543 292.682292 C 352.812543 301.020834 348.218793 315.354167 352.322959 328.531251 L 397.661501 474.088542 C 398.614626 477.145834 397.479209 480.473959 394.859418 482.312501 C 392.234418 484.156251 388.724001 484.088542 386.171918 482.156251 L 268.322959 392.838542 C 257.484417 384.625001 242.505251 384.625001 231.666709 392.838542 L 113.817751 482.156251 C 111.265667 484.088542 107.755251 484.156251 105.130251 482.312501 C 102.510459 480.473959 101.375042 477.145834 102.328167 474.088542 L 147.666709 328.531251 C 151.770876 315.354167 147.177126 301.020834 136.177126 292.682292 L 18.328167 203.364584 C 15.682334 201.359375 14.614625 197.890625 15.671917 194.739584 C 16.729209 191.59375 19.677125 189.473959 23.000042 189.473959 L 167.979209 189.473959 C 181.661501 189.473959 193.750042 180.572917 197.817751 167.515625 L 243.156292 21.958333 C 244.088584 18.963542 246.859417 16.927083 249.994834 16.927083 C 253.130251 16.927083 255.901084 18.963542 256.833376 21.958333 Z M 256.833376 21.958333 " stroke="#80868b" stroke-width="60" stroke-opacity="1" stroke-miterlimit="4"/></g></g></svg>